# xmcd CD database file
#
# Track frame offsets:
#	150
#	14862
#	31825
#	46700
#	67556
#	92250
#	109585
#	131190
#	160563
#	177015
#	193839
#	209237
#	225620
#	261246
#
# Disc length: 3734 seconds
#
# Revision: 1
# Processed by: cddbd v1.4PL0 Copyright (c) Steve Scherf et al.
# Submitted via: CDex 1.40Release
#
DISCID=b40e940e
DTITLE=Eric Clapton - Unplugged+
DYEAR=1999
DGENRE=Alternative
TTITLE0=Signe
TTITLE1=Before You Accuse Me
TTITLE2=Hey Hey
TTITLE3=Tears In Heaven
TTITLE4=Lonely Stranger
TTITLE5=Nobody Knows You When You're Down and Out
TTITLE6=Layla
TTITLE7=Running On Faith
TTITLE8=Walkin' Blues
TTITLE9=Alberta
TTITLE10=San Francisco Bay Blues
TTITLE11=Malted Milk
TTITLE12=Old Love
TTITLE13=Rollin' and Tumblin'
EXTD=YEAR: 1999 ID3G: 20
EXTT0=
EXTT1=
EXTT2=
EXTT3=
EXTT4=
EXTT5=
EXTT6=
EXTT7=
EXTT8=
EXTT9=
EXTT10=
EXTT11=
EXTT12=
EXTT13=
PLAYORDER=
